<?xml version="1.0" standalone="no"?>
<!DOCTYPE svg PUBLIC "-//W3C//DTD SVG 20010904//EN"
 "http://www.w3.org/TR/2001/REC-SVG-20010904/DTD/svg10.dtd">
<svg version="1.0" xmlns="http://www.w3.org/2000/svg"
 width="1000.000000pt" height="1000.000000pt" viewBox="0 0 1000.000000 1000.000000"
 preserveAspectRatio="xMidYMid meet">
<metadata>
Created by potrace 1.14, written by Peter Selinger 2001-2017
</metadata>
<g transform="translate(0.000000,1000.000000) scale(0.100000,-0.100000)"
fill="#000000" stroke="none">
<path d="M4715 8341 c-38 -5 -97 -12 -130 -15 -268 -31 -627 -128 -890 -241
-414 -177 -739 -398 -1066 -724 -342 -341 -600 -741 -767 -1191 -76 -204 -148
-477 -176 -670 -3 -19 -11 -75 -18 -125 -20 -147 -16 -718 7 -805 2 -8 6 -37
10 -64 5 -41 22 -138 39 -221 47 -233 159 -550 273 -780 280 -559 703 -1026
1230 -1356 445 -279 944 -446 1488 -498 89 -9 572 -7 630 3 17 2 55 7 85 11
353 40 775 173 1115 349 334 174 588 362 853 631 485 495 797 1102 916 1785
15 85 20 124 36 275 11 104 5 578 -9 675 -6 41 -13 93 -17 115 -26 186 -100
473 -175 673 -382 1024 -1238 1797 -2299 2075 -93 25 -270 61 -340 71 -19 2
-55 7 -80 11 -25 3 -61 8 -80 11 -64 9 -564 13 -635 5z"/>
</g>
</svg>
